<svg width="160" height="267" viewBox="0 0 160 267" fill="none" xmlns="http://www.w3.org/2000/svg">
<path d="M0.644284 61.5666C-0.975792 65.0768 0.556428 69.2357 4.06659 70.8558L61.268 97.2564C64.7782 98.8765 68.9371 97.3443 70.5572 93.8341C72.1772 90.324 70.645 86.1651 67.1348 84.545L16.2891 61.0777L39.7564 10.232C41.3765 6.72185 39.8442 2.56296 36.3341 0.942889C32.8239 -0.677187 28.665 0.855032 27.0449 4.3652L0.644284 61.5666ZM120.5 77L113.607 78.2165L120.5 77ZM9.41994 71.0684C26.4438 64.7965 52.1917 57.99 74.2248 57.6366C85.2734 57.4594 94.692 58.9229 101.521 62.3033C107.996 65.508 112.233 70.4323 113.607 78.2165L127.393 75.7835C125.167 63.1678 117.771 54.7254 107.732 49.7562C98.0476 44.9626 86.0725 43.4448 74.0002 43.6384C49.7916 44.0267 22.3896 51.3702 4.58006 57.9316L9.41994 71.0684ZM113.607 78.2165C114.531 83.4533 113.852 86.8817 112.619 89.2843C111.362 91.734 109.118 93.9146 105.507 95.8906C97.8755 100.067 86.5268 102.159 73.0574 104.613C60.2933 106.94 45.7794 109.584 34.3752 115.507C28.5394 118.537 23.198 122.574 19.2271 128.143C15.2139 133.772 12.8753 140.584 12.5072 148.682L26.4928 149.318C26.7497 143.666 28.3173 139.509 30.6264 136.271C32.9778 132.973 36.3746 130.244 40.8279 127.931C50.0018 123.166 62.2692 120.81 75.5676 118.387C88.1607 116.091 102.156 113.683 112.228 108.172C117.468 105.304 122.166 101.344 125.074 95.6768C128.007 89.9622 128.719 83.2968 127.393 75.7835L113.607 78.2165ZM12.5072 148.682C11.8928 162.199 18.5312 175.151 28.1319 186.746C37.8159 198.441 51.2123 209.608 65.8204 219.75C95.0636 240.052 130.317 257.032 153.892 266.496L159.108 253.504C136.183 244.301 101.936 227.781 73.8046 208.25C59.7252 198.475 47.4654 188.143 38.915 177.817C30.2813 167.39 26.1072 157.801 26.4928 149.318L12.5072 148.682Z" fill="#87F695"/>
</svg>
